<svg width="24" height="25" viewBox="0 0 24 25" fill="none" xmlns="http://www.w3.org/2000/svg">
<path fill-rule="evenodd" clip-rule="evenodd" d="M5.78799 15.0095C5.83096 15.0238 5.87514 15.0342 5.91999 15.0405C6.20292 15.7071 6.48425 16.3745 6.76399 17.0425C7.26699 18.2445 7.77399 19.4825 7.88499 19.8385C8.02399 20.2765 8.16999 20.5745 8.32999 20.7785C8.41299 20.8825 8.50799 20.9745 8.61999 21.0445C8.67834 21.081 8.74077 21.1105 8.80599 21.1325C9.12599 21.2525 9.41799 21.2025 9.60099 21.1415C9.70838 21.1048 9.81057 21.0544 9.90499 20.9915L9.90999 20.9895L12.736 19.2275L16.001 21.7295C16.049 21.7665 16.101 21.7975 16.157 21.8225C16.549 21.9925 16.929 22.0525 17.287 22.0045C17.643 21.9545 17.926 21.8055 18.137 21.6365C18.3793 21.4412 18.5724 21.1919 18.701 20.9085L18.71 20.8865L18.713 20.8785L18.715 20.8745V20.8725L18.716 20.8715C18.7334 20.8285 18.7468 20.784 18.756 20.7385L21.736 5.71349C21.7454 5.66539 21.7501 5.61649 21.75 5.56749C21.75 5.12749 21.584 4.70849 21.195 4.45549C20.861 4.23849 20.49 4.22849 20.255 4.24649C20.003 4.26649 19.769 4.32849 19.612 4.37849C19.5241 4.40634 19.4374 4.4377 19.352 4.47249L19.341 4.47749L2.62699 11.0335L2.62499 11.0345C2.56844 11.0553 2.51273 11.0783 2.45799 11.1035C2.32546 11.1631 2.19832 11.234 2.07799 11.3155C1.85099 11.4705 1.32799 11.8965 1.41699 12.6005C1.48699 13.1605 1.87099 13.5055 2.10599 13.6715C2.23399 13.7625 2.35599 13.8275 2.44599 13.8705C2.48599 13.8905 2.57199 13.9245 2.60899 13.9405L2.61899 13.9435L5.78799 15.0095ZM19.926 5.85749H19.924C19.9154 5.86131 19.9067 5.86498 19.898 5.86849L3.16399 12.4335C3.15538 12.437 3.14672 12.4403 3.13799 12.4435L3.12799 12.4465C3.09742 12.4585 3.0674 12.4718 3.03799 12.4865C3.06583 12.5024 3.09454 12.5168 3.12399 12.5295L6.26599 13.5875C6.32214 13.6064 6.37585 13.6319 6.42599 13.6635L16.803 7.58849L16.813 7.58349C16.8533 7.55899 16.8947 7.5363 16.937 7.51549C17.009 7.47849 17.124 7.42449 17.254 7.38449C17.344 7.35649 17.611 7.27749 17.899 7.37049C18.0518 7.41864 18.1879 7.50878 18.2919 7.63061C18.3958 7.75244 18.4635 7.90106 18.487 8.05949C18.5242 8.19824 18.5253 8.34422 18.49 8.48349C18.42 8.75849 18.228 8.97249 18.053 9.13649C17.903 9.27649 15.957 11.1525 14.038 13.0045L11.425 15.5245L10.96 15.9745L16.832 20.4765C16.9112 20.5098 16.9973 20.5235 17.083 20.5165C17.1261 20.5106 17.1667 20.4926 17.2 20.4645C17.2405 20.4303 17.2753 20.3897 17.303 20.3445L17.305 20.3435L20.195 5.77049C20.104 5.79239 20.0147 5.82113 19.928 5.85649L19.926 5.85749ZM11.465 18.2515L10.293 17.3535L10.009 19.1585L11.465 18.2515ZM9.21799 15.5715L10.383 14.4465L12.996 11.9245L13.969 10.9865L7.44899 14.8035L7.48399 14.8855C7.8952 15.8569 8.30187 16.8303 8.70399 17.8055L8.98699 16.0055C9.0126 15.8385 9.09403 15.6862 9.21799 15.5715Z" fill="#3E3727"/>
</svg>
