<svg width="24" height="25" viewBox="0 0 24 25" fill="none" xmlns="http://www.w3.org/2000/svg">
<path fill-rule="evenodd" clip-rule="evenodd" d="M23.405 17.8545C22.861 16.759 22.1442 15.7582 21.282 14.8905C20.9936 14.5647 20.6917 14.2511 20.377 13.9506L20.339 13.9135C20.2222 13.8004 20.1068 13.6857 19.993 13.5695C21.1716 11.9303 22.1802 10.1753 23.003 8.33155L23.036 8.25755L23.059 8.17955C23.168 7.81655 23.292 7.12655 22.852 6.50255C22.396 5.85855 21.667 5.74255 21.178 5.74255H18.931C18.4605 5.72111 17.9953 5.84905 17.6019 6.10806C17.2086 6.36707 16.9072 6.74387 16.741 7.18455C16.2574 8.33619 15.652 9.43277 14.935 10.4555V7.82255C14.935 7.48255 14.903 6.91255 14.538 6.43255C14.102 5.85655 13.471 5.74255 13.033 5.74255H9.467C9.00167 5.73184 8.55005 5.90051 8.20567 6.21362C7.86128 6.52674 7.65051 6.96031 7.617 7.42455L7.614 7.46955V7.51455C7.614 7.99955 7.806 8.35755 7.96 8.58255C8.029 8.68355 8.102 8.77555 8.149 8.83355L8.159 8.84655C8.209 8.90855 8.242 8.94955 8.275 8.99555C8.363 9.11355 8.488 9.29755 8.524 9.77155V11.2445C7.80818 10.0459 7.22124 8.77479 6.773 7.45255L6.765 7.43055L6.757 7.40955C6.635 7.09055 6.44 6.62655 6.049 6.27255C5.593 5.85755 5.053 5.74255 4.562 5.74255H2.282C1.785 5.74255 1.186 5.85855 0.739 6.32955C0.3 6.79355 0.25 7.34955 0.25 7.64355V7.77755L0.278 7.90755C0.909301 10.8383 2.21024 13.5833 4.079 15.9275C4.93338 17.2749 6.09329 18.4018 7.46465 19.217C8.83601 20.0322 10.3802 20.5127 11.972 20.6195L12.013 20.6225H12.055C12.781 20.6225 13.538 20.5595 14.107 20.1805C14.874 19.6685 14.935 18.8836 14.935 18.4916V17.3535C15.132 17.5135 15.376 17.7275 15.675 18.0155C16.037 18.3775 16.325 18.6915 16.572 18.9655L16.704 19.1115C16.896 19.3255 17.085 19.5365 17.257 19.7095C17.473 19.9265 17.74 20.1656 18.074 20.3426C18.437 20.5336 18.818 20.6206 19.222 20.6206H21.503C21.984 20.6206 22.673 20.5065 23.158 19.9445C23.686 19.3326 23.646 18.5815 23.48 18.0425L23.45 17.9455L23.405 17.8545ZM17.685 17.9606C17.3751 17.6141 17.056 17.276 16.728 16.9465L16.725 16.9436C15.368 15.6356 14.735 15.4085 14.287 15.4085C14.048 15.4085 13.785 15.4346 13.614 15.6486C13.537 15.7506 13.4865 15.8702 13.467 15.9965C13.4429 16.1433 13.4322 16.2919 13.435 16.4405V18.4916C13.435 18.7466 13.393 18.8535 13.275 18.9315C13.118 19.0365 12.783 19.1215 12.064 19.1215C10.6982 19.0286 9.37398 18.6129 8.20018 17.9084C7.02637 17.204 6.03652 16.2311 5.312 15.0695L5.304 15.0566L5.294 15.0445C3.55312 12.8777 2.33984 10.3358 1.75 7.61955C1.754 7.48955 1.782 7.41055 1.828 7.36255C1.875 7.31255 1.99 7.24255 2.282 7.24255H4.562C4.815 7.24255 4.947 7.29855 5.042 7.38355C5.148 7.48155 5.242 7.64655 5.354 7.94055C5.914 9.58655 6.67 11.1265 7.387 12.2585C7.745 12.8235 8.097 13.2945 8.415 13.6275C8.574 13.7935 8.729 13.9316 8.878 14.0295C9.021 14.1235 9.184 14.1985 9.352 14.1985C9.44 14.1985 9.543 14.1885 9.642 14.1455C9.74892 14.0983 9.83693 14.0166 9.892 13.9135C9.995 13.7255 10.024 13.4485 10.024 13.0855V9.71255C9.971 8.89455 9.724 8.43355 9.484 8.10655C9.4354 8.04114 9.38538 7.9768 9.334 7.91355L9.321 7.89755C9.27836 7.84575 9.23766 7.79238 9.199 7.73755C9.14977 7.6764 9.12015 7.60181 9.114 7.52355C9.12185 7.44409 9.15976 7.37063 9.21999 7.3182C9.28022 7.26578 9.35821 7.23836 9.438 7.24155H13.033C13.239 7.24155 13.308 7.29155 13.343 7.33855C13.393 7.40355 13.435 7.53855 13.435 7.82255V12.3505C13.435 12.8885 13.683 13.2525 14.043 13.2525C14.457 13.2525 14.756 13.0015 15.278 12.4795L15.287 12.4695L15.295 12.4605C16.466 11.0328 17.4227 9.44213 18.135 7.73855L18.139 7.72655C18.1925 7.57603 18.2938 7.44716 18.4274 7.35959C18.561 7.27203 18.7196 7.23057 18.879 7.24155H21.179C21.491 7.24155 21.593 7.32155 21.627 7.36855C21.662 7.41855 21.687 7.52555 21.627 7.73555C20.8056 9.5719 19.7901 11.3152 18.598 12.9355L18.59 12.9475C18.475 13.1245 18.348 13.3205 18.33 13.5445C18.31 13.7865 18.414 14.0055 18.597 14.2415C18.73 14.4375 19.005 14.7065 19.284 14.9795L19.31 15.0055C19.602 15.2915 19.919 15.6015 20.173 15.9015L20.18 15.9085L20.187 15.9165C20.9444 16.672 21.5743 17.5454 22.052 18.5026C22.128 18.7626 22.082 18.8965 22.022 18.9655C21.953 19.0455 21.798 19.1206 21.504 19.1206H19.222C19.0665 19.1243 18.9126 19.0882 18.775 19.0155C18.6064 18.9175 18.4534 18.7948 18.321 18.6516C18.178 18.5086 18.023 18.3356 17.833 18.1245L17.685 17.9606Z" fill="#3E3727"/>
</svg>
