<svg width="24" height="25" viewBox="0 0 24 25" fill="none" xmlns="http://www.w3.org/2000/svg">
<path d="M12.04 2.98956C6.58 2.98956 2.13 7.43956 2.13 12.8996C2.13 14.6496 2.59 16.3496 3.45 17.8496L2.05 22.9896L7.3 21.6096C8.75 22.3996 10.38 22.8196 12.04 22.8196C17.5 22.8196 21.95 18.3696 21.95 12.9096C21.95 10.2596 20.92 7.76956 19.05 5.89956C18.1331 4.97366 17.041 4.23952 15.8375 3.73992C14.634 3.24031 13.3431 2.98524 12.04 2.98956ZM12.05 4.65956C14.25 4.65956 16.31 5.51956 17.87 7.07956C18.6354 7.84507 19.2422 8.75407 19.6558 9.75447C20.0693 10.7549 20.2815 11.827 20.28 12.9096C20.28 17.4496 16.58 21.1396 12.04 21.1396C10.56 21.1396 9.11 20.7496 7.85 19.9896L7.55 19.8196L4.43 20.6396L5.26 17.5996L5.06 17.2796C4.23455 15.968 3.79767 14.4493 3.8 12.8996C3.81 8.35956 7.5 4.65956 12.05 4.65956ZM8.53 8.31956C8.37 8.31956 8.1 8.37956 7.87 8.62956C7.65 8.87956 7 9.48956 7 10.6996C7 11.9196 7.89 13.0896 8 13.2596C8.14 13.4296 9.76 15.9296 12.25 16.9896C12.84 17.2596 13.3 17.4096 13.66 17.5196C14.25 17.7096 14.79 17.6796 15.22 17.6196C15.7 17.5496 16.68 17.0196 16.89 16.4396C17.1 15.8596 17.1 15.3696 17.04 15.2596C16.97 15.1596 16.81 15.0996 16.56 14.9896C16.31 14.8496 15.09 14.2496 14.87 14.1696C14.64 14.0896 14.5 14.0496 14.31 14.2896C14.15 14.5396 13.67 15.0996 13.53 15.2596C13.38 15.4296 13.24 15.4496 13 15.3296C12.74 15.1996 11.94 14.9396 11 14.0996C10.26 13.4396 9.77 12.6296 9.62 12.3796C9.5 12.1396 9.61 11.9896 9.73 11.8796C9.84 11.7696 10 11.5896 10.1 11.4396C10.23 11.2996 10.27 11.1896 10.35 11.0296C10.43 10.8596 10.39 10.7196 10.33 10.5996C10.27 10.4896 9.77 9.24956 9.56 8.75956C9.36 8.27956 9.16 8.33956 9 8.32956C8.86 8.32956 8.7 8.31956 8.53 8.31956Z" fill="#3E3727"/>
</svg>
