<svg width="14" height="16" viewBox="0 0 14 16" fill="none" xmlns="http://www.w3.org/2000/svg">
<path d="M13.44 6.40667L7.00001 0L0.560014 6.40667C0.484032 6.46453 0.421368 6.53804 0.376266 6.62222C0.331163 6.70641 0.304675 6.7993 0.298594 6.89461C0.292513 6.98992 0.306981 7.08542 0.341019 7.17466C0.375057 7.26389 0.42787 7.34477 0.495883 7.41182C0.563895 7.47886 0.64552 7.53052 0.73523 7.56328C0.82494 7.59604 0.920642 7.60914 1.01586 7.6017C1.11107 7.59425 1.20357 7.56644 1.28711 7.52014C1.37064 7.47384 1.44324 7.41013 1.50001 7.33333L6.33335 2.54V15.2933C6.33335 15.4701 6.40358 15.6397 6.52861 15.7647C6.65363 15.8898 6.8232 15.96 7.00001 15.96C7.17682 15.96 7.34639 15.8898 7.47142 15.7647C7.59644 15.6397 7.66668 15.4701 7.66668 15.2933V2.54L12.5 7.33333C12.6255 7.45798 12.7955 7.52766 12.9724 7.52704C13.1493 7.52641 13.3187 7.45554 13.4433 7.33C13.568 7.20446 13.6377 7.03455 13.6371 6.85764C13.6364 6.68073 13.5655 6.51132 13.44 6.38667V6.40667Z" fill="white"/>
</svg>
