<svg width="154" height="90" viewBox="0 0 154 90" fill="none" xmlns="http://www.w3.org/2000/svg">
<path d="M66.263 23.306C87.1466 12.6653 107.305 5.53074 123.005 2.5895C130.859 1.11825 137.568 0.70185 142.684 1.40384C147.817 2.10827 151.221 3.91795 152.676 6.77345C154.131 9.62895 153.594 13.4463 151.147 18.0133C148.708 22.5645 144.427 27.7476 138.621 33.2365C127.013 44.2097 109.392 56.3246 88.5086 66.9653C67.625 77.606 47.4666 84.7406 31.7661 87.6818C23.9125 89.153 17.2033 89.5694 12.0877 88.8674C6.95442 88.163 3.55069 86.3533 2.09574 83.4978C0.640792 80.6423 1.17739 76.825 3.62478 72.258C6.06371 67.7068 10.3442 62.5237 16.1507 57.0348C27.7587 46.0616 45.3795 33.9467 66.263 23.306Z" stroke="#A4A96B"/>
</svg>
