<svg width="420" height="166" viewBox="0 0 420 166" fill="none" xmlns="http://www.w3.org/2000/svg">
<path d="M198.313 50.5762C256.033 29.5661 309.617 14.2292 349.587 6.41488C369.576 2.50694 386.137 0.484939 398.1 0.568269C404.085 0.609947 408.887 1.17863 412.383 2.28412C415.89 3.39339 417.976 5.00703 418.724 7.06059C419.471 9.11414 418.91 11.6913 416.936 14.7959C414.969 17.8899 411.656 21.4127 407.098 25.2917C397.987 33.0459 384.001 42.1434 366.177 51.9995C330.536 71.7078 279.63 94.4056 221.911 115.416C164.191 136.426 110.607 151.763 70.6368 159.577C50.648 163.485 34.0866 165.507 22.1236 165.424C16.1391 165.382 11.3368 164.813 7.84115 163.708C4.33355 162.599 2.24746 160.985 1.5001 158.931C0.752734 156.878 1.31364 154.301 3.28765 151.196C5.25491 148.102 8.56821 144.579 13.1258 140.7C22.2364 132.946 36.2228 123.849 54.0469 113.992C89.6881 94.2841 140.593 71.5864 198.313 50.5762Z" stroke="#A4A96B"/>
</svg>
